# xmcd CD database file
#
# Track frame offsets:
#	150
#	25587
#	44112
#	62100
#	81925
#	98150
#	117325
#	135350
#	150100
#	168725
#
# Disc length: 2474 seconds
#
# Revision: 2
# Processed by: cddbd v1.4PL0 Copyright (c) Steve Scherf et al.
# Submitted via: NotifyCDPlayer 1.60beta14
#
DISCID=7a09a80a
DTITLE=Kevin Johnson - Journeys
DYEAR=1900
DGENRE=
TTITLE0=Oleanders
TTITLE1=Never Know Your Luck (In A Big City)
TTITLE2=Every Day
TTITLE3=Paraguayan Sunset
TTITLE4=Rollin (All I Ever Needed)
TTITLE5=I Came To Somerset
TTITLE6=The Next Plane To New Mexico
TTITLE7=Love Knows Where To Find You
TTITLE8=All Our Favorite Songs
TTITLE9=The Comeback Trail
EXTD=All songs by Kevin Johnson \nPublished by MCA, Festival and Joye\nProd
EXTD=uced by Kevin Johnson\nArranged by Kevin Johnson, Wayne Findlay\nand Er
EXTD=ic Cooke\nEngineered by Gerry Stevens and Bruce Brown\nat Festival Stud
EXTD=ios, Sydney.\nMixed at Alberts Studios and Festival \nStudios, Sydney.\nG
EXTD=uitars: Kevin Johnson, Kirk Lorange, Marc\nPunch,Steve Murphy, Jim Gann
EXTD=on, Doug\nAshdown,Rory O'Donohue.\nBass: Tim Partridge, Duncan Maguire,
EXTD=\nPhil Lawson, Jackie Orzarski.\nDrums: Russell Dunlop, Peter Figures.\
EXTD=nKeyboards: Wayne Findlay.\nPercussion:\nAccordion: Enzo Toppano\nPhoto
EXTD=graphy and design by Ray Hall.\nArt Direction: Noel W Brown\n          
EXTD=
EXTT0=
EXTT1=
EXTT2=
EXTT3=
EXTT4=
EXTT5=
EXTT6=
EXTT7=
EXTT8=
EXTT9=
PLAYORDER=
